HIERARCHY
ROOT newVegas:Hips
{
	OFFSET 0.000000 96.479958 0.000000
	CHANNELS 6 Xposition Yposition Zposition Xrotation Yrotation Zrotation
	JOINT newVegas:Pelvis
	{
		OFFSET 0.000000 0.000000 0.000000
		CHANNELS 3 Xrotation Yrotation Zrotation
		JOINT newVegas:LeftUpLeg
		{
			OFFSET 18.735201 -5.666702 -4.541200
			CHANNELS 3 Xrotation Yrotation Zrotation
			JOINT newVegas:LeftLeg
			{
				OFFSET -0.021200 -31.938179 0.493100
				CHANNELS 3 Xrotation Yrotation Zrotation
				JOINT newVegas:LeftFoot
				{
					OFFSET 0.021200 -31.938179 -4.336299
					CHANNELS 3 Xrotation Yrotation Zrotation
					JOINT newVegas:LeftToeBase
					{
						OFFSET 0.943001 -26.722000 15.023500
						CHANNELS 3 Xrotation Yrotation Zrotation
						End Site
						{
							OFFSET 0.000000 30.670183 0.000000
						}
					}
				}
				JOINT newVegas:Left_PantLeg
				{
					OFFSET 0.663870 -9.044666 -1.108900
					CHANNELS 3 Xrotation Yrotation Zrotation
					End Site
					{
						OFFSET 1.415995 20.635357 0.000000
					}
				}
			}
		}
		JOINT newVegas:RightUpLeg
		{
			OFFSET -18.735201 -5.666702 -4.541200
			CHANNELS 3 Xrotation Yrotation Zrotation
			JOINT newVegas:RightLeg
			{
				OFFSET 0.018946 -31.938133 0.493100
				CHANNELS 3 Xrotation Yrotation Zrotation
				JOINT newVegas:RightFoot
				{
					OFFSET -0.018946 -31.938126 -4.336299
					CHANNELS 3 Xrotation Yrotation Zrotation
					JOINT newVegas:RightToeBase
					{
						OFFSET -0.943001 -26.722004 15.023500
						CHANNELS 3 Xrotation Yrotation Zrotation
						End Site
						{
							OFFSET 0.000000 30.670187 0.000000
						}
					}
				}
				JOINT newVegas:Right_PantLeg
				{
					OFFSET -0.661674 -9.044716 -1.108900
					CHANNELS 3 Xrotation Yrotation Zrotation
					End Site
					{
						OFFSET -1.415958 20.635269 0.000000
					}
				}
			}
		}
	}
	JOINT newVegas:Spine
	{
		OFFSET 0.000000 10.199997 -0.299500
		CHANNELS 3 Xrotation Yrotation Zrotation
		JOINT newVegas:Spine1
		{
			OFFSET 0.000000 11.900002 -1.516600
			CHANNELS 3 Xrotation Yrotation Zrotation
			JOINT newVegas:Spine2
			{
				OFFSET 0.000000 13.600006 -2.842500
				CHANNELS 3 Xrotation Yrotation Zrotation
				JOINT newVegas:Neck
				{
					OFFSET 0.000000 9.624100 -2.890100
					CHANNELS 3 Xrotation Yrotation Zrotation
					JOINT newVegas:Head
					{
						OFFSET 0.000000 14.068802 -1.351900
						CHANNELS 3 Xrotation Yrotation Zrotation
						JOINT newVegas:Hair_Back
						{
							OFFSET 0.000000 3.231903 -17.524799
							CHANNELS 3 Xrotation Yrotation Zrotation
							End Site
							{
								OFFSET 0.000000 19.849884 0.000000
							}
						}
						JOINT newVegas:Hair_Front
						{
							OFFSET 0.000000 31.260406 4.573800
							CHANNELS 3 Xrotation Yrotation Zrotation
							JOINT newVegas:Hair_Front1
							{
								OFFSET 0.000000 2.284103 11.993300
								CHANNELS 3 Xrotation Yrotation Zrotation
								JOINT newVegas:Hair_Front2
								{
									OFFSET 0.000000 2.284103 11.993300
									CHANNELS 3 Xrotation Yrotation Zrotation
									End Site
									{
										OFFSET 0.000000 12.208862 0.000000
									}
								}
							}
						}
						JOINT newVegas:Jowel
						{
							OFFSET 0.000000 -7.458206 6.864100
							CHANNELS 3 Xrotation Yrotation Zrotation
							End Site
							{
								OFFSET 0.000000 19.849884 0.000000
							}
						}
					}
				}
				JOINT newVegas:LeftShoulder
				{
					OFFSET 15.263000 10.923401 -0.547700
					CHANNELS 3 Xrotation Yrotation Zrotation
					JOINT newVegas:LeftArm
					{
						OFFSET 25.438599 -2.830597 -13.032500
						CHANNELS 3 Xrotation Yrotation Zrotation
						JOINT newVegas:LeftForeArm
						{
							OFFSET 29.960503 0.000000 0.000000
							CHANNELS 3 Xrotation Yrotation Zrotation
							JOINT newVegas:LeftHand
							{
								OFFSET 27.849251 0.000000 0.000000
								CHANNELS 3 Xrotation Yrotation Zrotation
								JOINT newVegas:LeftHandThumb1
								{
									OFFSET 4.487587 -3.305161 6.305391
									CHANNELS 3 Xrotation Yrotation Zrotation
									JOINT newVegas:LeftHandThumb2
									{
										OFFSET 5.480453 -3.164139 3.164143
										CHANNELS 3 Xrotation Yrotation Zrotation
										JOINT newVegas:LeftHandThumb3
										{
											OFFSET 5.159721 -2.978973 2.978967
											CHANNELS 3 Xrotation Yrotation Zrotation
											End Site
											{
												OFFSET 2.494507 5.926697 1.738678
											}
										}
									}
								}
								JOINT newVegas:LeftHandIndex1
								{
									OFFSET 18.578728 -0.527832 5.208049
									CHANNELS 3 Xrotation Yrotation Zrotation
									JOINT newVegas:LeftHandIndex2
									{
										OFFSET 3.192009 0.000000 0.000000
										CHANNELS 3 Xrotation Yrotation Zrotation
										JOINT newVegas:LeftHandIndex3
										{
											OFFSET 3.835129 0.000000 0.000000
											CHANNELS 3 Xrotation Yrotation Zrotation
											End Site
											{
												OFFSET -0.034599 3.816971 0.371180
											}
										}
									}
								}
								JOINT newVegas:LeftHandMiddle1
								{
									OFFSET 18.476105 0.000000 0.000000
									CHANNELS 3 Xrotation Yrotation Zrotation
									JOINT newVegas:LeftHandMiddle2
									{
										OFFSET 3.324875 0.000000 0.000000
										CHANNELS 3 Xrotation Yrotation Zrotation
										JOINT newVegas:LeftHandMiddle3
										{
											OFFSET 4.596550 0.000000 0.000000
											CHANNELS 3 Xrotation Yrotation Zrotation
											End Site
											{
												OFFSET 0.057701 4.578827 0.399218
											}
										}
									}
								}
								JOINT newVegas:LeftHandRing1
								{
									OFFSET 17.732719 0.121887 -4.201567
									CHANNELS 3 Xrotation Yrotation Zrotation
									JOINT newVegas:LeftHandRing2
									{
										OFFSET 2.733170 0.000000 0.000000
										CHANNELS 3 Xrotation Yrotation Zrotation
										JOINT newVegas:LeftHandRing3
										{
											OFFSET 3.178268 0.000000 0.000000
											CHANNELS 3 Xrotation Yrotation Zrotation
											End Site
											{
												OFFSET 0.119102 3.170624 0.185394
											}
										}
									}
								}
								JOINT newVegas:LeftHandPinky1
								{
									OFFSET 15.989624 -0.606689 -7.535461
									CHANNELS 3 Xrotation Yrotation Zrotation
									JOINT newVegas:LeftHandPinky2
									{
										OFFSET 2.538986 0.000000 0.000000
										CHANNELS 3 Xrotation Yrotation Zrotation
										JOINT newVegas:LeftHandPinky3
										{
											OFFSET 2.593102 0.000000 0.000000
											CHANNELS 3 Xrotation Yrotation Zrotation
											End Site
											{
												OFFSET -0.150902 2.584198 0.152708
											}
										}
									}
								}
							}
							JOINT newVegas:Left_Sleeve
							{
								OFFSET 0.267448 -0.649796 0.577675
								CHANNELS 3 Xrotation Yrotation Zrotation
								End Site
								{
									OFFSET 0.000000 15.991241 0.000000
								}
							}
							JOINT newVegas:Left_CapeC
							{
								OFFSET 15.715958 -8.608795 -6.935905
								CHANNELS 3 Xrotation Yrotation Zrotation
								JOINT newVegas:Left_CapeC1
								{
									OFFSET 0.000000 -8.688499 0.000000
									CHANNELS 3 Xrotation Yrotation Zrotation
									End Site
									{
										OFFSET 0.000000 8.688499 0.000000
									}
								}
							}
						}
						JOINT newVegas:Left_CapeB
						{
							OFFSET 26.118385 -8.608795 -7.079235
							CHANNELS 3 Xrotation Yrotation Zrotation
							JOINT newVegas:Left_CapeB1
							{
								OFFSET 0.000000 -8.688499 0.000000
								CHANNELS 3 Xrotation Yrotation Zrotation
								End Site
								{
									OFFSET 0.000000 8.688499 0.000000
								}
							}
						}
						JOINT newVegas:Left_CapeA
						{
							OFFSET 5.115639 -8.608795 -10.395809
							CHANNELS 3 Xrotation Yrotation Zrotation
							JOINT newVegas:Left_CapeA1
							{
								OFFSET 0.000000 -8.688499 0.000000
								CHANNELS 3 Xrotation Yrotation Zrotation
								End Site
								{
									OFFSET 0.000000 8.688499 0.000000
								}
							}
						}
					}
				}
				JOINT newVegas:RightShoulder
				{
					OFFSET -15.263000 10.923401 -0.547700
					CHANNELS 3 Xrotation Yrotation Zrotation
					JOINT newVegas:RightArm
					{
						OFFSET -25.438599 -2.830597 -13.032500
						CHANNELS 3 Xrotation Yrotation Zrotation
						JOINT newVegas:RightForeArm
						{
							OFFSET -29.960503 0.000000 0.000000
							CHANNELS 3 Xrotation Yrotation Zrotation
							JOINT newVegas:RightHand
							{
								OFFSET -27.849251 0.000000 0.000000
								CHANNELS 3 Xrotation Yrotation Zrotation
								JOINT newVegas:RightHandThumb1
								{
									OFFSET -4.487587 -3.305161 6.305391
									CHANNELS 3 Xrotation Yrotation Zrotation
									JOINT newVegas:RightHandThumb2
									{
										OFFSET -5.480453 -3.164139 3.164143
										CHANNELS 3 Xrotation Yrotation Zrotation
										JOINT newVegas:RightHandThumb3
										{
											OFFSET -5.159721 -2.978973 2.978967
											CHANNELS 3 Xrotation Yrotation Zrotation
											End Site
											{
												OFFSET -2.494507 5.926697 1.738678
											}
										}
									}
								}
								JOINT newVegas:RightHandIndex1
								{
									OFFSET -18.578728 -0.527832 5.208049
									CHANNELS 3 Xrotation Yrotation Zrotation
									JOINT newVegas:RightHandIndex2
									{
										OFFSET -3.192009 0.000000 0.000000
										CHANNELS 3 Xrotation Yrotation Zrotation
										JOINT newVegas:RightHandIndex3
										{
											OFFSET -3.835129 0.000000 0.000000
											CHANNELS 3 Xrotation Yrotation Zrotation
											End Site
											{
												OFFSET 0.034599 3.816971 0.371180
											}
										}
									}
								}
								JOINT newVegas:RightHandMiddle1
								{
									OFFSET -18.476105 0.000000 0.000000
									CHANNELS 3 Xrotation Yrotation Zrotation
									JOINT newVegas:RightHandMiddle2
									{
										OFFSET -3.324875 0.000000 0.000000
										CHANNELS 3 Xrotation Yrotation Zrotation
										JOINT newVegas:RightHandMiddle3
										{
											OFFSET -4.596550 0.000000 0.000000
											CHANNELS 3 Xrotation Yrotation Zrotation
											End Site
											{
												OFFSET -0.057701 4.578827 0.399218
											}
										}
									}
								}
								JOINT newVegas:RightHandRing1
								{
									OFFSET -17.732719 0.121887 -4.201567
									CHANNELS 3 Xrotation Yrotation Zrotation
									JOINT newVegas:RightHandRing2
									{
										OFFSET -2.733170 0.000000 0.000000
										CHANNELS 3 Xrotation Yrotation Zrotation
										JOINT newVegas:RightHandRing3
										{
											OFFSET -3.178268 0.000000 0.000000
											CHANNELS 3 Xrotation Yrotation Zrotation
											End Site
											{
												OFFSET -0.119102 3.170624 0.185394
											}
										}
									}
								}
								JOINT newVegas:RightHandPinky1
								{
									OFFSET -15.989624 -0.606689 -7.535461
									CHANNELS 3 Xrotation Yrotation Zrotation
									JOINT newVegas:RightHandPinky2
									{
										OFFSET -2.538986 0.000000 0.000000
										CHANNELS 3 Xrotation Yrotation Zrotation
										JOINT newVegas:RightHandPinky3
										{
											OFFSET -2.593102 0.000000 0.000000
											CHANNELS 3 Xrotation Yrotation Zrotation
											End Site
											{
												OFFSET 0.150902 2.584198 0.152708
											}
										}
									}
								}
							}
							JOINT newVegas:Right_CapeC
							{
								OFFSET -15.715958 -8.608795 -6.935905
								CHANNELS 3 Xrotation Yrotation Zrotation
								JOINT newVegas:Right_CapeC1
								{
									OFFSET 0.000000 -8.688499 0.000000
									CHANNELS 3 Xrotation Yrotation Zrotation
									End Site
									{
										OFFSET 0.000000 8.688499 0.000000
									}
								}
							}
							JOINT newVegas:Right_Sleeve
							{
								OFFSET -0.267448 -0.649994 0.577675
								CHANNELS 3 Xrotation Yrotation Zrotation
								End Site
								{
									OFFSET 0.000000 15.991302 0.000000
								}
							}
						}
						JOINT newVegas:Right_CapeA
						{
							OFFSET -5.115540 -8.608795 -10.395824
							CHANNELS 3 Xrotation Yrotation Zrotation
							JOINT newVegas:Right_CapeA1
							{
								OFFSET 0.000000 -8.688499 0.000000
								CHANNELS 3 Xrotation Yrotation Zrotation
								End Site
								{
									OFFSET 0.000000 8.688499 0.000000
								}
							}
						}
						JOINT newVegas:Right_CapeB
						{
							OFFSET -26.118187 -8.608795 -7.079266
							CHANNELS 3 Xrotation Yrotation Zrotation
							JOINT newVegas:Right_CapeB1
							{
								OFFSET 0.000000 -8.688499 0.000000
								CHANNELS 3 Xrotation Yrotation Zrotation
								End Site
								{
									OFFSET 0.000000 8.688499 0.000000
								}
							}
						}
					}
				}
				JOINT newVegas:Left_Collar
				{
					OFFSET 18.625099 8.655502 8.828100
					CHANNELS 3 Xrotation Yrotation Zrotation
					JOINT newVegas:Left_Collar1
					{
						OFFSET 14.783401 10.540405 -1.259500
						CHANNELS 3 Xrotation Yrotation Zrotation
						End Site
						{
							OFFSET 0.000000 18.199875 0.000000
						}
					}
				}
				JOINT newVegas:Collar_Back
				{
					OFFSET 0.000000 15.630707 -20.132601
					CHANNELS 3 Xrotation Yrotation Zrotation
					End Site
					{
						OFFSET 0.000000 22.523010 0.000000
					}
				}
				JOINT newVegas:Left_Peck
				{
					OFFSET 17.239599 -5.132599 25.482599
					CHANNELS 3 Xrotation Yrotation Zrotation
					End Site
					{
						OFFSET 0.000000 22.523010 0.000000
					}
				}
				JOINT newVegas:Right_Peck
				{
					OFFSET -17.239599 -5.132202 25.482599
					CHANNELS 3 Xrotation Yrotation Zrotation
					End Site
					{
						OFFSET 0.000000 22.523010 0.000000
					}
				}
				JOINT newVegas:Right_Collar
				{
					OFFSET -18.625099 8.655792 8.828100
					CHANNELS 3 Xrotation Yrotation Zrotation
					JOINT newVegas:Right_Collar1
					{
						OFFSET -14.783401 10.539993 -1.259500
						CHANNELS 3 Xrotation Yrotation Zrotation
						End Site
						{
							OFFSET 0.000000 18.199631 0.000000
						}
					}
				}
			}
		}
		JOINT newVegas:Belly
		{
			OFFSET 0.000000 -6.540398 9.014299
			CHANNELS 3 Xrotation Yrotation Zrotation
			End Site
			{
				OFFSET 0.000000 11.566666 0.000000
			}
		}
	}
	JOINT newVegas:ElvisFacialAnim_Joint
	{
		OFFSET 1.000000 -95.330101 -8.825800
		CHANNELS 3 Xrotation Yrotation Zrotation
		End Site
		{
			OFFSET 0.000000 35.315800 0.000000
		}
	}
}
MOTION
Frames: 4
Frame Time: 0.033333
-2.432949 197.295883 3.491528 6.090806 -35.556650 0.876248 -0.000000 0.000002 -0.000000 -26.845575 16.676527 22.772745 47.455324 -1.890044 -1.867842 -29.618422 10.990038 -9.879116 0.000000 -0.000000 -0.000000 -0.000000 -0.000001 -0.000000 -20.391470 6.013727 -3.689849 37.608036 0.484535 1.388236 -23.481627 -8.079987 1.136251 -0.000000 -0.000000 -0.000000 0.000001 -0.000003 -0.000000 2.605929 -0.654771 -0.137554 5.212615 -1.335828 -0.139706 5.212619 -1.335838 -0.139705 0.199481 0.607674 -0.638912 0.199486 0.607678 -0.638913 0.000003 -0.000001 -0.000000 0.199341 0.607652 -0.638906 0.199624 0.607711 -0.638919 -0.000001 0.000001 0.000000 0.000003 -0.000001 -0.000000 0.565006 -4.246576 -5.075389 10.662900 -11.826413 -56.458644 -0.049235 -52.886547 0.057781 32.239285 2.559039 -7.155688 7.350849 -14.484237 -10.934820 -1.067046 0.182844 1.946077 -0.000003 0.000002 -0.000004 5.776144 -9.584547 -10.641313 0.033771 0.666531 -10.636473 0.000000 0.000001 -0.000001 1.641877 7.127186 -4.239650 -0.187936 -0.789337 -15.969020 -0.000003 -0.000000 -0.000000 1.677308 11.039955 -8.046060 -0.183079 -2.876873 -23.912175 -0.000001 -0.000001 -0.000000 0.734594 28.047561 -16.218764 -0.849532 -6.142199 -29.148263 0.000000 -0.000003 -0.000001 -0.000000 -0.000002 0.000001 -0.000000 -0.000002 0.000001 -0.000001 -0.000002 0.000001 0.000002 0.000001 0.000001 0.000002 0.000000 0.000000 0.000002 0.000001 0.000001 0.000002 0.000002 0.000002 0.476186 7.147073 5.148420 15.156618 10.101922 58.408950 -0.044597 57.070581 -0.065828 15.553440 -3.655792 9.438037 -4.978389 12.391670 9.407262 -1.210153 -0.220442 -2.120986 -0.000001 0.000000 -0.000000 10.258610 13.576544 6.067490 0.012525 -0.647900 4.076566 0.000000 -0.000001 0.000001 -1.738470 -1.670994 3.393791 -0.252721 0.798112 21.448257 -0.000000 0.000000 -0.000001 -0.824260 -13.700970 18.348852 -0.242218 2.213619 16.221175 0.000000 0.000001 -0.000000 -4.380748 -23.900601 30.060325 -0.233912 5.125295 12.870289 0.000001 0.000003 -0.000001 -0.000000 -0.000001 0.000002 0.000000 0.000000 0.000000 -0.000000 -0.000001 0.000002 -0.000001 0.000000 -0.000002 -0.000001 0.000001 -0.000000 -0.000001 0.000000 -0.000002 -0.000001 0.000001 -0.000001 0.000000 0.000000 0.000000 0.000000 0.000000 0.000000 0.000000 0.000000 0.000000 0.000000 0.000000 0.000000 0.000000 0.000000 0.000000 0.000000 0.000000 0.000000 0.000000 0.000000 0.000000 -0.000000 0.000001 -0.000000 -0.000000 0.000002 -0.000000 
-2.467785 197.087524 3.647211 6.355658 -35.209574 1.218697 0.000000 0.000001 0.000000 -27.101697 16.702189 22.633393 47.830394 -1.904152 -1.882363 -30.223365 10.644296 -9.956745 0.000000 -0.000000 -0.000000 0.000002 -0.000000 -0.000001 -20.268612 6.168900 -3.725557 37.895607 0.468861 1.395050 -24.571378 -8.662152 0.576107 -0.000000 -0.000003 -0.000000 0.000000 0.000000 -0.000001 2.632082 -0.729239 -0.184452 5.264195 -1.484960 -0.243094 5.264196 -1.484967 -0.243093 0.116301 0.614240 -0.642237 0.116301 0.614235 -0.642248 -0.000000 0.000001 -0.000000 0.116319 0.614090 -0.642192 0.116436 0.614349 -0.642243 0.000001 0.000000 0.000001 -0.000000 0.000001 -0.000000 0.565704 -4.233103 -5.024567 10.664954 -11.885368 -55.320076 -0.044358 -53.748951 0.061645 31.994276 2.746162 -7.172567 7.350852 -14.484226 -10.934824 -1.067055 0.182836 1.946074 0.000004 -0.000001 0.000001 5.776134 -9.584553 -10.641330 0.033763 0.666542 -10.636452 -0.000002 -0.000001 -0.000000 1.641895 7.127182 -4.239643 -0.187968 -0.789337 -15.969035 -0.000000 0.000001 -0.000001 1.677307 11.039956 -8.046067 -0.183066 -2.876885 -23.912151 0.000002 -0.000002 0.000001 0.734587 28.047547 -16.218757 -0.849531 -6.142183 -29.148273 0.000001 -0.000007 0.000000 0.000001 0.000002 -0.000000 0.000001 0.000002 -0.000000 0.000001 0.000001 -0.000000 0.000000 0.000002 -0.000001 0.000001 0.000001 -0.000001 0.000000 0.000002 -0.000001 0.000001 -0.000000 -0.000000 0.481817 7.054084 5.058382 15.214767 9.974050 58.190958 -0.039795 57.807900 -0.070445 14.892833 -3.654687 10.466830 -4.978390 12.391685 9.407243 -1.210157 -0.220443 -2.120983 -0.000002 -0.000001 -0.000002 10.258623 13.576548 6.067477 0.012529 -0.647890 4.076569 0.000001 -0.000001 0.000001 -1.738481 -1.670993 3.393789 -0.252709 0.798112 21.448257 -0.000001 -0.000000 0.000000 -0.824250 -13.700952 18.348839 -0.242216 2.213617 16.221211 0.000001 0.000001 0.000001 -4.380740 -23.900601 30.060315 -0.233915 5.125296 12.870317 0.000000 -0.000000 0.000001 0.000000 -0.000003 -0.000001 0.000000 -0.000003 0.000001 0.000000 -0.000003 -0.000001 -0.000001 0.000003 -0.000000 -0.000001 0.000004 0.000001 -0.000001 0.000003 -0.000000 -0.000001 0.000004 0.000000 0.000001 0.000000 -0.000001 0.000001 0.000000 -0.000001 0.000001 0.000000 -0.000001 0.000001 0.000000 -0.000001 0.000001 0.000000 -0.000001 0.000001 0.000000 -0.000001 0.000001 0.000000 -0.000001 0.000000 0.000001 -0.000000 0.000000 0.000001 0.000000 
-2.486533 196.893829 3.777667 6.694459 -34.802597 1.550691 -0.000000 -0.000001 0.000000 -27.532115 16.548930 22.516139 48.258965 -1.924546 -1.898594 -30.638460 10.311820 -10.068489 -0.000000 -0.000000 0.000000 0.000003 0.000000 -0.000000 -20.261340 6.208283 -3.783603 38.157600 0.453627 1.401700 -25.482024 -9.141999 0.138995 -0.000000 0.000000 0.000000 -0.000000 -0.000001 -0.000001 2.700609 -0.811616 -0.249132 5.400329 -1.650452 -0.372553 5.400328 -1.650462 -0.372551 0.010880 0.624311 -0.643529 0.010882 0.624319 -0.643535 -0.000002 -0.000001 -0.000000 0.010877 0.624338 -0.643535 0.010885 0.624313 -0.643532 -0.000001 0.000001 -0.000001 -0.000002 -0.000001 -0.000000 0.567834 -4.188295 -4.901492 10.529001 -12.114543 -53.658260 -0.038556 -54.586978 0.067147 31.790938 3.064409 -6.795837 7.350859 -14.484210 -10.934830 -1.067076 0.182837 1.946089 0.000001 0.000003 -0.000006 5.776127 -9.584527 -10.641330 0.033750 0.666554 -10.636462 0.000001 -0.000000 0.000000 1.641874 7.127218 -4.239656 -0.187955 -0.789340 -15.969047 0.000001 -0.000001 0.000000 1.677312 11.039972 -8.046078 -0.183076 -2.876870 -23.912147 0.000002 0.000001 -0.000001 0.734586 28.047571 -16.218773 -0.849535 -6.142202 -29.148283 0.000000 -0.000003 -0.000003 -0.000002 0.000001 -0.000001 -0.000002 0.000001 -0.000001 -0.000002 0.000001 -0.000001 -0.000001 0.000002 0.000002 -0.000001 0.000001 0.000001 -0.000001 0.000002 0.000002 -0.000001 0.000003 0.000003 0.485542 6.976205 5.013463 15.269069 9.732787 57.740835 -0.032852 58.804008 -0.077385 14.063512 -3.667974 11.640525 -4.978397 12.391678 9.407266 -1.210153 -0.220445 -2.120981 0.000000 0.000001 -0.000000 10.258609 13.576562 6.067473 0.012524 -0.647891 4.076597 -0.000004 0.000002 -0.000000 -1.738479 -1.670986 3.393800 -0.252708 0.798116 21.448245 0.000001 0.000000 0.000001 -0.824266 -13.700953 18.348875 -0.242217 2.213616 16.221178 0.000001 0.000001 0.000001 -4.380754 -23.900601 30.060315 -0.233905 5.125286 12.870298 0.000000 0.000002 -0.000001 -0.000000 0.000003 -0.000001 -0.000001 -0.000001 -0.000001 -0.000000 0.000003 0.000001 -0.000001 0.000001 0.000001 -0.000001 0.000002 0.000002 -0.000001 0.000001 0.000001 -0.000001 0.000002 0.000001 0.000001 -0.000000 0.000001 0.000001 -0.000000 0.000001 0.000001 -0.000000 0.000001 0.000001 -0.000000 0.000001 0.000001 -0.000000 0.000001 0.000001 -0.000000 0.000001 0.000001 -0.000000 0.000001 0.000001 0.000001 -0.000000 -0.000000 -0.000001 0.000000 
-2.478189 196.713562 3.864179 7.154717 -34.417545 1.843926 0.000000 -0.000001 0.000000 -28.174578 16.176396 22.416881 48.819733 -1.946300 -1.918081 -31.072136 10.051511 -10.102045 -0.000000 -0.000000 -0.000000 0.000001 0.000000 -0.000001 -20.441988 6.138237 -3.833712 38.344887 0.442848 1.407402 -26.134783 -9.482536 -0.061104 -0.000000 -0.000002 0.000000 -0.000002 -0.000001 0.000000 2.821694 -0.876882 -0.321991 5.641590 -1.782269 -0.505621 5.641590 -1.782267 -0.505621 -0.117784 0.635397 -0.645671 -0.117782 0.635399 -0.645674 -0.000000 0.000001 -0.000000 -0.117780 0.635394 -0.645671 -0.117773 0.635388 -0.645669 -0.000002 0.000000 -0.000000 -0.000000 0.000001 -0.000001 0.570549 -4.126473 -4.733227 10.077043 -12.325679 -51.552355 -0.030934 -55.415797 0.075091 31.760721 3.532090 -6.335733 7.350846 -14.484219 -10.934832 -1.067068 0.182850 1.946082 0.000005 0.000000 -0.000001 5.776143 -9.584524 -10.641322 0.033754 0.666548 -10.636459 0.000004 -0.000000 -0.000001 1.641879 7.127214 -4.239654 -0.187939 -0.789361 -15.969032 -0.000003 -0.000000 -0.000000 1.677310 11.039957 -8.046067 -0.183066 -2.876870 -23.912141 -0.000001 0.000001 0.000000 0.734585 28.047588 -16.218764 -0.849522 -6.142202 -29.148256 -0.000001 -0.000002 -0.000000 0.000000 -0.000002 0.000001 0.000000 -0.000002 0.000001 0.000000 -0.000002 0.000001 0.000000 -0.000002 0.000001 0.000000 -0.000003 0.000001 0.000000 -0.000002 0.000001 0.000001 -0.000001 0.000002 0.488413 6.902999 4.988729 15.218633 9.379597 57.050152 -0.024423 59.932649 -0.086213 12.993153 -3.683303 12.389780 -4.978382 12.391666 9.407255 -1.210158 -0.220449 -2.120981 0.000003 -0.000003 -0.000003 10.258623 13.576554 6.067470 0.012527 -0.647890 4.076594 -0.000001 -0.000000 0.000001 -1.738473 -1.670984 3.393796 -0.252698 0.798108 21.448240 0.000001 0.000000 -0.000001 -0.824247 -13.700956 18.348823 -0.242213 2.213619 16.221185 -0.000000 -0.000001 0.000002 -4.380742 -23.900592 30.060294 -0.233909 5.125297 12.870325 0.000000 -0.000000 -0.000000 -0.000000 -0.000000 0.000001 0.000000 -0.000000 -0.000000 0.000000 -0.000000 -0.000001 -0.000001 -0.000002 -0.000001 -0.000001 -0.000001 -0.000000 -0.000001 -0.000002 -0.000001 -0.000001 -0.000001 -0.000000 0.000002 -0.000001 0.000000 0.000002 -0.000001 0.000000 0.000002 -0.000001 0.000000 0.000002 -0.000001 0.000000 0.000002 -0.000001 0.000000 0.000002 -0.000001 0.000000 0.000002 -0.000001 0.000000 -0.000000 -0.000004 0.000000 0.000000 -0.000001 0.000000 
